<svg width="134" height="36" viewBox="0 0 134 36" fill="none" xmlns="http://www.w3.org/2000/svg">
<g clip-path="url(#clip0_21_27063)">
<path d="M0 5.18746L16.0242 0V35.9111C4.57819 31.1225 0 21.9453 0 16.759V5.18746Z" fill="#0500FF"/>
<path d="M32.0496 5.18746L16.0254 0V35.9111C27.4714 31.1225 32.0496 21.9453 32.0496 16.759V5.18746Z" fill="url(#paint0_linear_21_27063)"/>
<path d="M60.1895 8.4707H66.5448V12.0163C68.627 8.82979 71.0231 8.4707 74.5308 8.4707V14.7365H72.9334C68.7302 14.7365 66.7178 16.7065 66.7178 20.609V27.2693H60.1895V8.4707Z" fill="#0500FF"/>
<path d="M95.7361 27.2693H89.2088V25.4772C87.7833 27.1246 85.8409 27.8405 83.4458 27.8405C78.8976 27.8405 76.3262 25.1545 76.3262 20.2146V8.4707H82.8535V18.7484C82.8535 21.0742 83.9994 22.4343 85.9429 22.4343C87.8865 22.4343 89.2077 21.1084 89.2077 18.8545V8.4707H95.735V27.2693H95.7361Z" fill="#0500FF"/>
<path d="M97.3301 21.4666H103.444C103.722 22.8267 104.659 23.399 106.915 23.399C108.756 23.399 109.832 22.9703 109.832 22.1826C109.832 21.5727 109.311 21.1782 107.82 20.8567L102.889 19.7463C99.5898 18.9961 97.9225 17.0979 97.9225 14.0528C97.9225 10.0409 100.873 7.96484 106.603 7.96484C112.333 7.96484 115.145 9.9879 115.633 14.3224H109.557C109.454 13.1777 108.271 12.4772 106.328 12.4772C104.766 12.4772 103.761 12.9777 103.761 13.7313C103.761 14.3754 104.419 14.8759 105.741 15.2008L110.914 16.4548C114.316 17.2769 115.95 18.9972 115.95 21.7892C115.95 25.6574 112.581 27.949 106.855 27.949C101.128 27.949 97.3401 25.4784 97.3401 21.4666H97.3334H97.3301Z" fill="#0500FF"/>
<path d="M133.335 14.3178V8.4707H117.223V14.3211H122.03V27.2693H128.524V14.3178H133.335Z" fill="#0500FF"/>
<path d="M58.3725 14.3178V8.4707H42.2617V14.3211H47.0695V27.2693H53.5646V14.3178H58.3725Z" fill="#0500FF"/>
</g>
<defs>
<linearGradient id="paint0_linear_21_27063" x1="27.7931" y1="-2.51473" x2="15.7771" y2="35.4483" gradientUnits="userSpaceOnUse">
<stop offset="0.02" stop-color="#0000FF"/>
<stop offset="0.08" stop-color="#0094FF"/>
<stop offset="0.16" stop-color="#48FF91"/>
<stop offset="0.42" stop-color="#0094FF"/>
<stop offset="0.68" stop-color="#0038FF"/>
<stop offset="0.9" stop-color="#0500FF"/>
</linearGradient>
<clipPath id="clip0_21_27063">
<rect width="133.333" height="35.9111" fill="white"/>
</clipPath>
</defs>
</svg>
